<svg id="visual" viewBox="0 0 750 400" width="750" height="400" xmlns="http://www.w3.org/2000/svg" xmlns:xlink="http://www.w3.org/1999/xlink" version="1.1"><rect width="750" height="400" fill="#FFFFFF"></rect><g><g transform="translate(189 61)"><path d="M63.7 -33.3C78.9 -10.6 84.8 20.9 72.7 41.7C60.6 62.4 30.3 72.4 2 71.3C-26.3 70.1 -52.5 57.8 -65.8 36.4C-79.1 15 -79.3 -15.5 -66.2 -37.1C-53.1 -58.7 -26.5 -71.4 -1.1 -70.7C24.3 -70.1 48.6 -56.1 63.7 -33.3Z" stroke="#f7eed8" fill="none" stroke-width="20"></path></g><g transform="translate(435 302)"><path d="M67.6 -35.9C81.1 -15.7 81.1 15.5 67.5 35.3C54 55.1 27 63.5 0.8 63C-25.4 62.6 -50.8 53.3 -62.1 34.8C-73.4 16.3 -70.5 -11.3 -57.8 -31.1C-45.1 -50.8 -22.5 -62.6 2.3 -63.9C27.1 -65.2 54.1 -56 67.6 -35.9Z" stroke="#f7eed8" fill="none" stroke-width="20"></path></g><g transform="translate(580 25)"><path d="M47.7 -28.4C55.2 -14.7 49.9 5.6 39.9 19.9C29.8 34.2 14.9 42.6 -1 43.1C-16.8 43.7 -33.6 36.4 -41.2 23.6C-48.7 10.7 -47 -7.7 -38.6 -22C-30.2 -36.2 -15.1 -46.3 2.5 -47.8C20.1 -49.2 40.3 -42.1 47.7 -28.4Z" stroke="#f7eed8" fill="none" stroke-width="20"></path></g><g transform="translate(664 389)"><path d="M40 -26.7C48.2 -8.8 48.8 9.8 40.9 23.1C32.9 36.3 16.5 44.1 -0.3 44.3C-17 44.4 -34 36.9 -41.7 23.8C-49.5 10.7 -48 -8.1 -39.5 -26.1C-31 -44.2 -15.5 -61.5 0.2 -61.6C15.9 -61.7 31.7 -44.6 40 -26.7Z" stroke="#f7eed8" fill="none" stroke-width="20"></path></g><g transform="translate(89 346)"><path d="M50.8 -29.1C60.7 -12.2 60 11 49.8 24.4C39.5 37.9 19.8 41.6 2.2 40.3C-15.3 39 -30.6 32.8 -40.5 19.5C-50.3 6.3 -54.7 -13.9 -47 -29.5C-39.3 -45 -19.7 -56 0.4 -56.2C20.5 -56.5 41 -46 50.8 -29.1Z" stroke="#f7eed8" fill="none" stroke-width="20"></path></g></g></svg>